<svg width="512" height="512" viewBox="0 0 512 512" fill="none" xmlns="http://www.w3.org/2000/svg">
  <defs>
    <linearGradient id="cyanGrad" x1="0%" y1="100%" x2="100%" y2="0%">
      <stop offset="0%" style="stop-color:#0ea5e9;stop-opacity:1" />
      <stop offset="100%" style="stop-color:#22d3ee;stop-opacity:1" />
    </linearGradient>
    <filter id="dropShadow" x="-20%" y="-20%" width="140%" height="140%">
      <feDropShadow dx="4" dy="4" stdDeviation="4" flood-color="rgba(0,0,0,0.3)"/>
    </filter>
  </defs>
  
  <path d="M 240 100 L 300 180 L 270 180 L 270 240 C 270 240 250 240 240 240 C 170 240 140 290 140 340 C 140 400 190 440 250 440 L 250 360 L 280 360 L 280 440 L 290 440 L 290 280 L 390 280 L 370 340 L 290 340 L 290 440 L 300 440 L 300 450 C 300 450 200 480 110 360 C 80 310 90 240 160 180 L 160 180 Z" 
        fill="url(#cyanGrad)" filter="url(#dropShadow)"/>

  <path d="M 290 190 L 430 190 L 400 250 L 290 250 Z" 
        fill="url(#cyanGrad)" filter="url(#dropShadow)"/>

  <rect x="260" y="180" width="20" height="270" fill="white" fill-opacity="0.1"/>

  <circle cx="250" cy="300" r="35" fill="#1e293b" stroke="url(#cyanGrad)" stroke-width="4"/>
  <text x="250" y="315" font-family="Arial, sans-serif" font-weight="bold" font-size="40" text-anchor="middle" fill="url(#cyanGrad)">$</text>
  
  <path d="M 270 180 L 240 100 L 300 180 Z" fill="url(#cyanGrad)"/>
</svg>